#Comment line ignore any data following # character 
#Hierarchical Translation and Rotation (.htr) file 
[Header]	
#Header keywords are followed by a single value 
FileType HTR		#Single word string
DataType HTRS		#Translation followed by rotation and scale data
FileVersion 1		#integer
NumSegments 84		#integer
NumFrames 2		#integer
DataFrameRate 30		#integer, data frame rate in this file
EulerRotationOrder ZYX
CalibrationUnits mm
RotationUnits Degrees
GlobalAxisofGravity Y
BoneLengthAxis Y
ScaleFactor 1.00
[SegmentNames&Hierarchy]
#CHILD	PARENT
MASTER GLOBAL
root MASTER
chest root
L_mid_tent01 root
R_mid_tent01 root
spine01 root
Bip01_Neck chest
L_humerus chest
R_humerus chest
weapon_bone chest
Bip01_Head Bip01_Neck
eye_left_bone Bip01_Head
eye_right_bone Bip01_Head
L_forearm L_humerus
L_front_hand L_forearm
L_weapon_bone L_forearm
L_front_hand01_01 L_front_hand
L_front_hand02_01 L_front_hand
L_front_hand03_01 L_front_hand
L_front_hand01_02 L_front_hand01_01
L_front_hand02_02 L_front_hand02_01
L_front_hand03_02 L_front_hand03_01
R_forearm R_humerus
R_front_hand R_forearm
R_weapon_bone R_forearm
R_front_hand01_01 R_front_hand
R_front_hand02_01 R_front_hand
R_front_hand03_01 R_front_hand
R_front_hand01_02 R_front_hand01_01
R_front_hand02_02 R_front_hand02_01
R_front_hand03_02 R_front_hand03_01
null_rope01_connect L_mid_tent01
Rope1_Seg01 null_rope01_connect
Rope1_Seg02 Rope1_Seg01
Rope1_Seg03 Rope1_Seg02
Rope1_Seg04 Rope1_Seg03
Rope1_Seg05 Rope1_Seg04
Rope1_Seg06 Rope1_Seg05
Rope1_Seg07 Rope1_Seg06
Rope1_Seg09 Rope1_Seg07
L_mid_hand01 Rope1_Seg09
L_mid_hand02 Rope1_Seg09
L_mid_hand03 Rope1_Seg09
null_rope02_connect R_mid_tent01
Rope2_Seg01 null_rope02_connect
Rope2_Seg02 Rope2_Seg01
Rope2_Seg03 Rope2_Seg02
Rope2_Seg04 Rope2_Seg03
Rope2_Seg05 Rope2_Seg04
Rope2_Seg06 Rope2_Seg05
Rope2_Seg07 Rope2_Seg06
Rope2_Seg09 Rope2_Seg07
R_mid_hand01 Rope2_Seg09
R_mid_hand02 Rope2_Seg09
R_mid_hand03 Rope2_Seg09
spine02 spine01
spine03 spine02
pelvis spine03
null_rope03_connect pelvis
null_rope04_connect pelvis
Rope3_Seg01 null_rope03_connect
Rope3_Seg02 Rope3_Seg01
Rope3_Seg03 Rope3_Seg02
Rope3_Seg04 Rope3_Seg03
Rope3_Seg05 Rope3_Seg04
Rope3_Seg06 Rope3_Seg05
Rope3_Seg07 Rope3_Seg06
Rope3_Seg08 Rope3_Seg07
Rope3_Seg09 Rope3_Seg08
R_rear_hand01 Rope3_Seg09
R_rear_hand02 Rope3_Seg09
R_rear_hand03 Rope3_Seg09
Rope4_Seg01 null_rope04_connect
Rope4_Seg02 Rope4_Seg01
Rope4_Seg03 Rope4_Seg02
Rope4_Seg04 Rope4_Seg03
Rope4_Seg05 Rope4_Seg04
Rope4_Seg06 Rope4_Seg05
Rope4_Seg07 Rope4_Seg06
Rope4_Seg08 Rope4_Seg07
Rope4_Seg09 Rope4_Seg08
L_rear_hand01 Rope4_Seg09
L_rear_hand02 Rope4_Seg09
L_rear_hand03 Rope4_Seg09
[BasePosition]
#SegmentName Tx, Ty, Tz, Rx, Ry, Rz, BoneLength
MASTER 0.000000 0.000000 0.000000 -90.000000 0.000000 0.000000 10.000000 
root 0.000000 0.000000 0.000000 0.000000 0.000000 0.000000 10.000000 
chest 0.000000 0.000000 0.000000 0.000000 0.000000 0.000000 10.000000 
L_mid_tent01 0.000000 0.000000 0.000000 0.000000 0.000000 0.000000 10.000000 
R_mid_tent01 0.000000 0.000000 0.000000 0.000000 0.000000 0.000000 10.000000 
spine01 0.000000 0.000000 0.000000 0.000000 0.000000 0.000000 10.000000 
Bip01_Neck 0.000000 0.000000 0.000000 0.000000 0.000000 0.000000 10.000000 
L_humerus 0.000000 0.000000 0.000000 0.000000 0.000000 0.000000 10.000000 
R_humerus 0.000000 0.000000 0.000000 0.000000 0.000000 0.000000 10.000000 
weapon_bone 0.000000 0.000000 0.000000 0.000000 0.000000 0.000000 10.000000 
Bip01_Head 0.000000 0.000000 0.000000 0.000000 0.000000 0.000000 10.000000 
eye_left_bone 0.000000 0.000000 0.000000 0.000000 0.000000 0.000000 10.000000 
eye_right_bone 0.000000 0.000000 0.000000 0.000000 0.000000 0.000000 10.000000 
L_forearm 0.000000 0.000000 0.000000 0.000000 0.000000 0.000000 10.000000 
L_front_hand 0.000000 0.000000 0.000000 0.000000 0.000000 0.000000 10.000000 
L_weapon_bone 0.000000 0.000000 0.000000 0.000000 0.000000 0.000000 10.000000 
L_front_hand01_01 0.000000 0.000000 0.000000 0.000000 0.000000 0.000000 10.000000 
L_front_hand02_01 0.000000 0.000000 0.000000 0.000000 0.000000 0.000000 10.000000 
L_front_hand03_01 0.000000 0.000000 0.000000 0.000000 0.000000 0.000000 10.000000 
L_front_hand01_02 0.000000 0.000000 0.000000 0.000000 0.000000 0.000000 10.000000 
L_front_hand02_02 0.000000 0.000000 0.000000 0.000000 0.000000 0.000000 10.000000 
L_front_hand03_02 0.000000 0.000000 0.000000 0.000000 0.000000 0.000000 10.000000 
R_forearm 0.000000 0.000000 0.000000 0.000000 0.000000 0.000000 10.000000 
R_front_hand 0.000000 0.000000 0.000000 0.000000 0.000000 0.000000 10.000000 
R_weapon_bone 0.000000 0.000000 0.000000 0.000000 0.000000 0.000000 10.000000 
R_front_hand01_01 0.000000 0.000000 0.000000 0.000000 0.000000 0.000000 10.000000 
R_front_hand02_01 0.000000 0.000000 0.000000 0.000000 0.000000 0.000000 10.000000 
R_front_hand03_01 0.000000 0.000000 0.000000 0.000000 0.000000 0.000000 10.000000 
R_front_hand01_02 0.000000 0.000000 0.000000 0.000000 0.000000 0.000000 10.000000 
R_front_hand02_02 0.000000 0.000000 0.000000 0.000000 0.000000 0.000000 10.000000 
R_front_hand03_02 0.000000 0.000000 0.000000 0.000000 0.000000 0.000000 10.000000 
null_rope01_connect 0.000000 0.000000 0.000000 0.000000 0.000000 0.000000 10.000000 
Rope1_Seg01 0.000000 0.000000 0.000000 0.000000 0.000000 0.000000 10.000000 
Rope1_Seg02 0.000000 0.000000 0.000000 0.000000 0.000000 0.000000 10.000000 
Rope1_Seg03 0.000000 0.000000 0.000000 0.000000 0.000000 0.000000 10.000000 
Rope1_Seg04 0.000000 0.000000 0.000000 0.000000 0.000000 0.000000 10.000000 
Rope1_Seg05 0.000000 0.000000 0.000000 0.000000 0.000000 0.000000 10.000000 
Rope1_Seg06 0.000000 0.000000 0.000000 0.000000 0.000000 0.000000 10.000000 
Rope1_Seg07 0.000000 0.000000 0.000000 0.000000 0.000000 0.000000 10.000000 
Rope1_Seg09 0.000000 0.000000 0.000000 0.000000 0.000000 0.000000 10.000000 
L_mid_hand01 0.000000 0.000000 0.000000 0.000000 0.000000 0.000000 10.000000 
L_mid_hand02 0.000000 0.000000 0.000000 0.000000 0.000000 0.000000 10.000000 
L_mid_hand03 0.000000 0.000000 0.000000 0.000000 0.000000 0.000000 10.000000 
null_rope02_connect 0.000000 0.000000 0.000000 0.000000 0.000000 0.000000 10.000000 
Rope2_Seg01 0.000000 0.000000 0.000000 0.000000 0.000000 0.000000 10.000000 
Rope2_Seg02 0.000000 0.000000 0.000000 0.000000 0.000000 0.000000 10.000000 
Rope2_Seg03 0.000000 0.000000 0.000000 0.000000 0.000000 0.000000 10.000000 
Rope2_Seg04 0.000000 0.000000 0.000000 0.000000 0.000000 0.000000 10.000000 
Rope2_Seg05 0.000000 0.000000 0.000000 0.000000 0.000000 0.000000 10.000000 
Rope2_Seg06 0.000000 0.000000 0.000000 0.000000 0.000000 0.000000 10.000000 
Rope2_Seg07 0.000000 0.000000 0.000000 0.000000 0.000000 0.000000 10.000000 
Rope2_Seg09 0.000000 0.000000 0.000000 0.000000 0.000000 0.000000 10.000000 
R_mid_hand01 0.000000 0.000000 0.000000 0.000000 0.000000 0.000000 10.000000 
R_mid_hand02 0.000000 0.000000 0.000000 0.000000 0.000000 0.000000 10.000000 
R_mid_hand03 0.000000 0.000000 0.000000 0.000000 0.000000 0.000000 10.000000 
spine02 0.000000 0.000000 0.000000 0.000000 0.000000 0.000000 10.000000 
spine03 0.000000 0.000000 0.000000 0.000000 0.000000 0.000000 10.000000 
pelvis 0.000000 0.000000 0.000000 0.000000 0.000000 0.000000 10.000000 
null_rope03_connect 0.000000 0.000000 0.000000 0.000000 0.000000 0.000000 10.000000 
null_rope04_connect 0.000000 0.000000 0.000000 0.000000 0.000000 0.000000 10.000000 
Rope3_Seg01 0.000000 0.000000 0.000000 0.000000 0.000000 0.000000 10.000000 
Rope3_Seg02 0.000000 0.000000 0.000000 0.000000 0.000000 0.000000 10.000000 
Rope3_Seg03 0.000000 0.000000 0.000000 0.000000 0.000000 0.000000 10.000000 
Rope3_Seg04 0.000000 0.000000 0.000000 0.000000 0.000000 0.000000 10.000000 
Rope3_Seg05 0.000000 0.000000 0.000000 0.000000 0.000000 0.000000 10.000000 
Rope3_Seg06 0.000000 0.000000 0.000000 0.000000 0.000000 0.000000 10.000000 
Rope3_Seg07 0.000000 0.000000 0.000000 0.000000 0.000000 0.000000 10.000000 
Rope3_Seg08 0.000000 0.000000 0.000000 0.000000 0.000000 0.000000 10.000000 
Rope3_Seg09 0.000000 0.000000 0.000000 0.000000 0.000000 0.000000 10.000000 
R_rear_hand01 0.000000 0.000000 0.000000 0.000000 0.000000 0.000000 10.000000 
R_rear_hand02 0.000000 0.000000 0.000000 0.000000 0.000000 0.000000 10.000000 
R_rear_hand03 0.000000 0.000000 0.000000 0.000000 0.000000 0.000000 10.000000 
Rope4_Seg01 0.000000 0.000000 0.000000 0.000000 0.000000 0.000000 10.000000 
Rope4_Seg02 0.000000 0.000000 0.000000 0.000000 0.000000 0.000000 10.000000 
Rope4_Seg03 0.000000 0.000000 0.000000 0.000000 0.000000 0.000000 10.000000 
Rope4_Seg04 0.000000 0.000000 0.000000 0.000000 0.000000 0.000000 10.000000 
Rope4_Seg05 0.000000 0.000000 0.000000 0.000000 0.000000 0.000000 10.000000 
Rope4_Seg06 0.000000 0.000000 0.000000 0.000000 0.000000 0.000000 10.000000 
Rope4_Seg07 0.000000 0.000000 0.000000 0.000000 0.000000 0.000000 10.000000 
Rope4_Seg08 0.000000 0.000000 0.000000 0.000000 0.000000 0.000000 10.000000 
Rope4_Seg09 0.000000 0.000000 0.000000 0.000000 0.000000 0.000000 10.000000 
L_rear_hand01 0.000000 0.000000 0.000000 0.000000 0.000000 0.000000 10.000000 
L_rear_hand02 0.000000 0.000000 0.000000 0.000000 0.000000 0.000000 10.000000 
L_rear_hand03 0.000000 0.000000 0.000000 0.000000 0.000000 0.000000 10.000000 
#Beginning of Data. Separated by tabs
#Fr	Tx	Ty	Tz	Rx	Ry	Rz	SF
[MASTER]
5 -0.000076 570.371216 1328.465210 0.001660 0.001660 0.001660 1445.732788
6 -0.000107 776.285095 1641.820435 0.001660 0.001660 0.001660 1816.092773
[root]
5 -25.477131 -31.951550 1672.622314 -64.607956 -14.245687 -90.537392 1673.121460
6 -30.141262 -15.908441 1674.291504 -61.476006 -12.682184 -90.584587 1674.638306
[chest]
5 -84.512650 -34.090519 0.000000 3.960586 -1.288455 168.786087 91.129311
6 -84.512650 -34.090519 0.000000 5.652421 -1.591611 165.675262 91.129311
[L_mid_tent01]
5 27.299465 22.177658 -249.918091 -4.862195 32.687080 62.208420 252.380981
6 27.299458 22.177717 -249.918121 -6.450812 32.698776 57.854946 252.381012
[R_mid_tent01]
5 23.228794 24.509907 226.238495 -111.742149 -38.244900 18.828598 228.744751
6 23.228794 24.509907 226.238495 -101.723351 -31.495075 11.399292 228.744751
[spine01]
5 -0.361383 -0.195265 0.000000 0.718620 0.309363 17.851093 0.410763
6 -0.361383 -0.195265 0.000000 0.701968 0.299962 17.982388 0.410763
[Bip01_Neck]
5 165.484543 71.581718 0.000119 175.896118 1.177290 24.871180 180.302734
6 165.484543 71.581718 0.000119 175.896118 1.177290 24.871185 180.302734
[L_humerus]
5 -13.983130 -135.272980 -120.471481 -174.177109 78.754730 -84.081696 181.680161
6 -13.983130 -135.272980 -120.471481 -173.534637 79.647575 -83.439850 181.680161
[R_humerus]
5 -13.983309 -135.273102 125.287651 -116.177254 -60.112045 -153.289261 184.909012
6 -13.983309 -135.273102 125.287651 -107.701195 -57.454659 -159.119003 184.909012
[weapon_bone]
5 235.964890 -300.705902 0.000000 0.000000 -89.951546 -128.212341 382.234833
6 235.964890 -300.705902 0.000000 0.000000 -89.951546 -128.212341 382.234833
[Bip01_Head]
5 251.845245 143.316666 -7.579499 4.119788 5.845348 -62.458076 289.867462
6 250.994736 146.389023 -7.765657 4.938549 5.844635 -62.453297 290.668915
[eye_left_bone]
5 -24.626970 125.451866 -64.772606 0.000000 -90.000000 -99.840431 143.318359
6 -24.626970 125.451866 -64.772606 0.000000 -90.000000 -99.840431 143.318359
[eye_right_bone]
5 -24.626970 125.451866 64.327362 0.000000 -89.972023 80.159393 143.117676
6 -24.626970 125.451866 64.327362 0.000000 -89.960434 80.159386 143.117676
[L_forearm]
5 322.776093 0.000000 -0.000119 0.000194 -0.002339 -99.464561 322.776093
6 322.776093 0.000000 -0.000119 0.000201 -0.002339 -99.843178 322.776093
[L_front_hand]
5 241.149185 -0.042021 -3.300071 -178.667953 -1.835447 -27.422344 241.171753
6 241.149185 -0.042021 -3.300071 -178.667953 -1.835447 -27.422350 241.171753
[L_weapon_bone]
5 156.183838 0.000000 0.000000 0.000014 0.000007 0.000001 156.183838
6 156.183838 0.000000 0.000000 0.000014 0.000007 0.000001 156.183838
[L_front_hand01_01]
5 86.095154 20.947098 -0.655860 -0.366594 -0.477154 75.385574 88.609184
6 86.095154 20.947098 -0.655860 -0.366594 -0.477154 75.385574 88.609184
[L_front_hand02_01]
5 86.935165 -11.437475 24.513514 154.403534 -59.888935 -61.372009 91.046425
6 86.935165 -11.437475 24.513514 154.403519 -59.888931 -61.371990 91.046425
[L_front_hand03_01]
5 86.637497 -14.123976 -20.424902 -153.913849 58.118122 -62.702866 90.126129
6 86.637497 -14.123976 -20.424902 -153.913879 58.118130 -62.702892 90.126129
[L_front_hand01_02]
5 71.020905 -0.000179 0.000030 0.000334 -0.002323 -106.379684 71.020905
6 71.020905 -0.000179 0.000030 0.000334 -0.002323 -106.379684 71.020905
[L_front_hand02_02]
5 71.020927 -0.000119 0.000060 0.000334 -0.002323 -106.379684 71.020927
6 71.020927 -0.000119 0.000060 0.000334 -0.002323 -106.379684 71.020927
[L_front_hand03_02]
5 71.020905 -0.000060 0.000060 0.000334 -0.002323 -106.379684 71.020905
6 71.020905 -0.000060 0.000060 0.000334 -0.002323 -106.379684 71.020905
[R_forearm]
5 322.776428 -0.000060 0.000030 0.211546 0.031395 -98.765755 322.776428
6 322.776428 -0.000060 0.000030 0.210840 0.035834 -101.174438 322.776428
[R_front_hand]
5 238.847015 -0.006795 2.210259 -7.713239 -0.914204 -40.874794 238.857239
6 238.847015 -0.006795 2.210259 -10.385712 -1.416898 -37.691498 238.857239
[R_weapon_bone]
5 155.664093 0.002503 -0.000030 0.003487 0.001180 -90.988930 155.664078
6 155.664093 0.002503 -0.000030 0.003487 0.001180 -90.988930 155.664078
[R_front_hand01_01]
5 87.624611 14.231146 22.918642 -116.960213 3.496535 -1.324067 91.683487
6 87.624611 14.231146 22.918642 -117.926445 -14.954013 8.243813 91.683487
[R_front_hand02_01]
5 89.356956 14.367283 -19.491137 118.419647 -4.256951 0.609903 92.579636
6 89.356956 14.367283 -19.491137 119.277702 13.958570 10.614038 92.579636
[R_front_hand03_01]
5 87.286232 -22.307278 -0.143439 -0.387969 -0.231463 4.231843 90.091743
6 87.286232 -22.307278 -0.143439 -0.281789 -0.354047 -16.509243 90.091743
[R_front_hand01_02]
5 71.020905 0.000060 0.000119 0.001777 0.001534 8.377238 71.020905
6 71.020905 0.000060 0.000119 0.001807 0.001498 10.665142 71.020905
[R_front_hand02_02]
5 71.020844 -0.000030 -0.000119 0.001777 0.001534 8.377238 71.020836
6 71.020844 -0.000030 -0.000119 0.001807 0.001498 10.665142 71.020836
[R_front_hand03_02]
5 71.020905 0.000000 0.000030 0.001777 0.001534 8.377238 71.020905
6 71.020905 0.000000 0.000030 0.001807 0.001498 10.665142 71.020905
[null_rope01_connect]
5 328.732483 0.000000 -0.000238 -106.172318 -77.630417 144.434418 328.732483
6 328.732483 0.000000 -0.000238 -92.611877 -78.024971 132.721878 328.732483
[Rope1_Seg01]
5 0.000000 0.000000 0.000000 -173.939911 76.514664 -157.334396 0.000000
6 0.000000 0.000000 0.000000 -148.193680 73.210777 -133.718231 0.000000
[Rope1_Seg02]
5 139.999863 -0.000179 0.000000 -2.904867 -6.634144 13.994957 139.999863
6 139.999863 -0.000179 0.000000 -4.133985 -6.799935 15.947682 139.999863
[Rope1_Seg03]
5 139.999924 0.000060 -0.000060 -1.645296 -7.467848 13.772386 139.999924
6 139.999924 0.000060 -0.000060 -2.246939 -7.627473 15.406458 139.999924
[Rope1_Seg04]
5 139.999924 -0.000060 -0.000119 -0.539200 -6.274733 11.103917 139.999924
6 139.999924 -0.000060 -0.000119 -0.699704 -6.213942 11.779103 139.999924
[Rope1_Seg05]
5 139.999832 0.000119 -0.000060 0.481905 -3.099136 8.456615 139.999832
6 139.999832 0.000119 -0.000060 0.113131 -3.533693 6.984182 139.999832
[Rope1_Seg06]
5 139.999954 0.000119 -0.000060 1.022866 -1.758034 6.741794 139.999954
6 139.999954 0.000119 -0.000060 0.334126 -2.299788 4.893680 139.999954
[Rope1_Seg07]
5 139.999985 0.000060 0.000000 0.929516 -1.563105 4.926919 139.999985
6 139.999985 0.000060 0.000000 0.410521 -1.977958 4.125757 139.999985
[Rope1_Seg09]
5 121.602913 0.000119 -0.000089 -89.793175 -1.359789 0.847147 121.602913
6 121.602913 0.000119 -0.000089 -89.793175 -1.359789 0.847147 121.602913
[L_mid_hand01]
5 103.859421 1.038730 8.195221 114.520279 -53.310474 -20.623230 104.187431
6 103.859421 1.038730 8.195221 114.520287 -53.310486 -20.623234 104.187431
[L_mid_hand02]
5 105.572853 -4.139662 -10.864139 -155.067673 38.166618 -52.448807 106.211075
6 105.572853 -4.139662 -10.864139 -155.067673 38.166626 -52.448826 106.211075
[L_mid_hand03]
5 104.641464 17.579376 -3.913581 -10.970133 15.317463 57.626949 106.179977
6 104.641464 17.579376 -3.913581 -10.970131 15.317461 57.626949 106.179977
[null_rope02_connect]
5 328.732849 0.000179 -0.000119 -170.475754 -8.299205 -48.070065 328.732849
6 328.732849 0.000179 -0.000119 -172.536896 -18.356749 -55.951515 328.732849
[Rope2_Seg01]
5 -0.000028 0.000070 0.000016 -26.567358 -5.013972 -11.985713 0.000077
6 -0.000025 0.000049 0.000021 -14.559306 -12.971830 -17.098011 0.000059
[Rope2_Seg02]
5 139.999741 -0.000060 -0.000119 -25.838781 5.117891 30.351927 139.999756
6 139.999741 -0.000060 -0.000119 -22.142691 7.635783 21.970980 139.999756
[Rope2_Seg03]
5 140.000107 0.000030 0.000000 -13.322653 -8.444266 31.898294 140.000107
6 140.000107 0.000030 0.000000 -18.964985 -2.104097 35.810879 140.000107
[Rope2_Seg04]
5 139.999802 0.000000 -0.000060 -2.116292 -7.988396 15.062321 139.999802
6 139.999802 0.000000 -0.000060 -4.939408 -8.458243 21.816620 139.999802
[Rope2_Seg05]
5 139.999985 -0.000060 0.000119 -0.031233 -8.586560 11.355279 139.999985
6 139.999985 -0.000060 0.000119 -0.378763 -6.718425 12.882330 139.999985
[Rope2_Seg06]
5 139.999893 -0.000030 -0.000119 1.335903 -7.619483 9.824147 139.999893
6 139.999893 -0.000030 -0.000119 1.201102 -5.984739 11.000601 139.999893
[Rope2_Seg07]
5 139.999893 0.000060 -0.000060 1.772774 -4.024838 6.005133 139.999893
6 139.999893 0.000060 -0.000060 1.656188 -3.282703 6.771942 139.999893
[Rope2_Seg09]
5 121.338966 0.000089 -0.000060 71.587112 -0.364331 -1.504531 121.338966
6 121.338966 0.000089 -0.000060 73.653778 -0.235248 -1.514882 121.338966
[R_mid_hand01]
5 104.680779 11.144459 -10.335981 -47.384258 2.963522 5.452604 105.778534
6 104.680779 11.144459 -10.335981 -47.384258 2.963522 5.452604 105.778534
[R_mid_hand02]
5 104.070427 2.443552 8.231699 75.626297 -2.250001 1.111093 104.424065
6 104.070427 2.443552 8.231699 75.626297 -2.250001 1.111093 104.424065
[R_mid_hand03]
5 106.028137 -11.221827 -5.996406 -164.381912 2.495983 -6.140520 106.788818
6 106.028137 -11.221827 -5.996406 -164.381912 2.495983 -6.140520 106.788818
[spine02]
5 129.756927 0.001550 0.000119 -0.250919 -6.271788 -4.344381 129.756927
6 129.756927 0.001550 0.000119 -0.247779 -7.010342 -4.344582 129.756927
[spine03]
5 78.556671 0.095469 -5.456901 0.517208 4.894525 -1.547994 78.746033
6 78.556778 0.095342 -5.456003 0.553125 4.890192 -1.113291 78.746071
[pelvis]
5 169.435242 0.051022 0.000000 -0.045528 -0.509695 3.043899 169.435257
6 169.435242 0.051022 0.000000 -0.047982 -0.511509 3.360516 169.435257
[null_rope03_connect]
5 -1.257226 -2.466202 137.391083 15.992099 -63.333721 73.689102 137.418976
6 -1.257226 -2.466202 137.391083 15.659580 -60.013016 71.815613 137.418976
[null_rope04_connect]
5 -1.259640 -2.480268 -137.844437 15.992099 -63.333721 73.689102 137.872513
6 -1.259640 -2.480268 -137.844437 15.659580 -60.013016 71.815613 137.872513
[Rope3_Seg01]
5 -0.000028 -0.000100 0.000000 -126.189102 -37.956703 -90.670372 0.000104
6 -0.000027 -0.000115 0.000000 -127.024689 -35.585396 -89.259270 0.000119
[Rope3_Seg02]
5 139.999924 -0.000119 0.000060 2.593189 -14.081915 -30.333471 139.999924
6 139.999924 -0.000119 0.000060 0.913982 -9.983393 -26.031288 139.999924
[Rope3_Seg03]
5 139.999924 -0.000119 0.000119 -52.676857 -21.598061 -51.718895 139.999924
6 139.999924 -0.000119 0.000119 -32.091362 -17.250061 -51.872608 139.999924
[Rope3_Seg04]
5 139.999924 0.000119 0.000000 -93.317108 12.521139 -16.288500 139.999924
6 139.999924 0.000119 0.000000 -93.696533 7.811170 -22.268400 139.999924
[Rope3_Seg05]
5 139.999924 -0.000238 0.000060 -2.982416 19.275766 20.212273 139.999924
6 139.999924 -0.000238 0.000060 -14.325587 27.002642 14.283165 139.999924
[Rope3_Seg06]
5 139.999893 -0.000119 -0.000060 2.082446 15.494926 20.517965 139.999893
6 139.999893 -0.000119 -0.000060 0.511970 18.284166 18.619291 139.999893
[Rope3_Seg07]
5 139.999771 0.000060 -0.000119 0.702626 5.812099 7.346702 139.999771
6 139.999771 0.000060 -0.000119 0.505602 6.346605 6.576595 139.999771
[Rope3_Seg08]
5 139.999985 -0.000060 0.000000 0.592782 2.976604 3.698576 139.999985
6 139.999985 -0.000060 0.000000 0.542606 3.177912 3.262792 139.999985
[Rope3_Seg09]
5 90.185997 -0.000179 -0.000060 86.097816 -1.358607 -0.847220 90.185997
6 90.185997 -0.000179 -0.000060 84.343880 -1.358475 -0.847977 90.185997
[R_rear_hand01]
5 103.366196 -6.073594 -10.757982 -157.171555 9.603128 -11.017536 104.101845
6 103.366196 -6.073594 -10.757982 -158.916794 13.108926 -19.868397 104.101845
[R_rear_hand02]
5 100.509819 12.039542 -7.992327 -38.131180 7.480927 12.434102 101.543350
6 100.509819 12.039542 -7.992327 -36.772388 13.179056 19.981798 101.543350
[R_rear_hand03]
5 101.539970 5.215704 5.435467 84.201599 -11.195566 4.994817 101.819031
6 101.539970 5.215704 5.435467 83.929695 -20.504074 5.995993 101.819031
[Rope4_Seg01]
5 -0.000017 -0.000134 -0.000153 32.122337 22.191820 -137.365601 0.000204
6 -0.000016 -0.000148 -0.000153 27.481266 22.774992 -144.300842 0.000214
[Rope4_Seg02]
5 139.999985 0.000060 0.000119 -16.554506 5.022321 -29.825047 139.999985
6 139.999985 0.000060 0.000119 -17.403545 9.394933 -25.802586 139.999985
[Rope4_Seg03]
5 139.999924 0.000000 -0.000238 -12.035041 8.870622 -17.810244 139.999924
6 139.999924 0.000000 -0.000238 -11.838545 11.623877 -17.449148 139.999924
[Rope4_Seg04]
5 139.999985 0.000000 0.000119 -5.734699 6.523275 -8.889198 139.999985
6 139.999985 0.000000 0.000119 -4.468572 7.214233 -7.624884 139.999985
[Rope4_Seg05]
5 139.999802 -0.000060 -0.000119 -11.439040 14.053668 -18.897255 139.999802
6 139.999802 -0.000060 -0.000119 -4.470414 11.528622 -8.146288 139.999802
[Rope4_Seg06]
5 139.999924 0.000000 0.000060 -10.648410 21.481882 -22.159784 139.999924
6 139.999924 0.000000 0.000060 -3.746968 17.964403 -10.361535 139.999924
[Rope4_Seg07]
5 139.999802 0.000000 0.000000 -1.338349 10.255803 -7.821367 139.999802
6 139.999802 0.000000 0.000000 -0.044103 12.198194 -6.482450 139.999802
[Rope4_Seg08]
5 139.999924 0.000000 0.000119 -1.565598 5.000724 -3.676479 139.999924
6 139.999924 0.000000 0.000119 -0.731424 6.340974 -3.481969 139.999924
[Rope4_Seg09]
5 90.185791 0.000060 0.000060 -135.617828 2.228885 0.850567 90.185791
6 90.185791 0.000060 0.000060 -135.617828 2.228885 0.850567 90.185791
[L_rear_hand01]
5 101.696655 -8.392275 -7.654577 -19.915022 -33.950897 119.950104 102.329041
6 101.696655 -8.392275 -7.654577 -19.915020 -33.950905 119.950104 102.329041
[L_rear_hand02]
5 102.726799 -1.568258 5.773216 77.862221 61.878510 165.399185 102.900848
6 102.726799 -1.568258 5.773216 77.862221 61.878510 165.399200 102.900848
[L_rear_hand03]
5 104.552910 9.721220 -10.420293 -173.099182 -23.740307 -117.327896 105.519653
6 104.552910 9.721220 -10.420293 -173.099182 -23.740307 -117.327896 105.519653
